<svg width="33" height="21" viewBox="0 0 33 21" fill="none" xmlns="http://www.w3.org/2000/svg">
<path d="M16.6994 20.8125C21.4734 20.8125 19.7711 17.7902 20.1396 16.9212C20.1341 16.2722 20.1286 15.648 20.1506 15.2685C20.4531 15.3537 21.1667 15.7154 22.6407 17.1481C24.9164 19.4444 25.498 20.8125 27.3364 20.8125H30.7202C31.7927 20.8125 32.351 20.3684 32.6301 19.9957C32.8996 19.6355 33.1636 19.003 32.8749 18.0185C32.12 15.648 27.7172 11.5546 27.4436 11.1229C27.4849 11.0431 27.5509 10.9372 27.5853 10.8822H27.5825C28.4515 9.73412 31.768 4.76487 32.2561 2.77662C32.2575 2.77387 32.2589 2.76975 32.2589 2.76562C32.5229 1.85812 32.2809 1.26962 32.0306 0.936875C31.6539 0.439125 31.0544 0.1875 30.2445 0.1875H26.8606C25.7276 0.1875 24.8682 0.758125 24.4338 1.799C23.7064 3.64837 21.6631 7.45162 20.1314 8.79775C20.0846 6.89062 20.1162 5.4345 20.141 4.35237C20.1905 2.24175 20.35 0.1875 18.1596 0.1875H12.8411C11.4689 0.1875 10.1558 1.68625 11.5775 3.4655C12.8205 5.02475 12.0244 5.89375 12.2925 10.2195C11.2475 9.09887 9.3885 6.0725 8.074 2.20462C7.7055 1.15825 7.14725 0.188875 5.57562 0.188875H2.19175C0.8195 0.188875 0 0.936875 0 2.1895C0 5.00275 6.22738 20.8125 16.6994 20.8125ZM5.57562 2.25137C5.874 2.25137 5.90425 2.25137 6.12562 2.87975C7.47175 6.84387 10.4913 12.7096 12.6968 12.7096C14.3536 12.7096 14.3536 11.0115 14.3536 10.3721L14.3522 5.28187C14.2615 3.5975 13.6483 2.75875 13.2454 2.25L18.0689 2.2555C18.0716 2.27887 18.0414 7.88612 18.0826 9.24462C18.0826 11.1737 19.6144 12.2792 22.0055 9.85925C24.5286 7.01162 26.2735 2.75462 26.3436 2.58137C26.4468 2.33387 26.5361 2.25 26.8606 2.25H30.2445H30.2583C30.2569 2.25412 30.2569 2.25825 30.2555 2.26237C29.9461 3.70612 26.8923 8.30687 25.8706 9.7355C25.8541 9.7575 25.839 9.78087 25.8239 9.80425C25.3743 10.5385 25.0085 11.3497 25.8857 12.491C25.9655 12.5872 26.1745 12.8127 26.477 13.1262C27.4175 14.097 30.6432 17.4162 30.9292 18.7362C30.7395 18.7665 30.5333 18.7445 27.3364 18.7514C26.6558 18.7514 26.1236 17.7339 24.0927 15.6851C22.2667 13.9086 21.0815 13.1826 20.0021 13.1826C17.9066 13.1826 18.0592 14.8835 18.0785 16.9405C18.0854 19.1707 18.0716 18.4654 18.0868 18.6056C17.9644 18.6537 17.6138 18.75 16.6994 18.75C7.975 18.75 2.2935 4.90237 2.07487 2.2555C2.1505 2.24862 3.19137 2.25275 5.57562 2.25137Z" fill="black"/>
</svg>
